<svg width="1308" height="327" viewBox="0 0 1308 327" fill="none" xmlns="http://www.w3.org/2000/svg">
<circle cx="654" cy="327" r="31" fill="black"/>
<path d="M766 327C766 417.26 759.678 498.95 749.466 558.054C744.359 587.614 738.286 611.476 731.567 627.925C728.205 636.154 724.704 642.469 721.123 646.711C717.534 650.962 713.979 653 710.5 653C707.021 653 703.466 650.962 699.877 646.711C696.296 642.469 692.795 636.154 689.433 627.925C682.714 611.476 676.641 587.614 671.534 558.054C661.322 498.95 655 417.26 655 327C655 236.74 661.322 155.05 671.534 95.9463C676.641 66.3864 682.714 42.5243 689.433 26.0754C692.795 17.8465 696.296 11.5305 699.877 7.28863C703.466 3.03813 707.021 1 710.5 1C713.979 1 717.534 3.03813 721.123 7.28863C724.704 11.5305 728.205 17.8465 731.567 26.0754C738.286 42.5243 744.359 66.3864 749.466 95.9463C759.678 155.05 766 236.74 766 327Z" stroke="black" stroke-width="2"/>
<ellipse cx="653.5" cy="327" rx="3.5" ry="327" fill="black"/>
<path d="M877 327C877 417.219 864.474 498.854 844.25 557.9C834.136 587.428 822.116 611.252 808.818 627.673C795.513 644.104 781.038 653 766 653C750.962 653 736.487 644.104 723.182 627.673C709.884 611.252 697.864 587.428 687.75 557.9C667.526 498.854 655 417.219 655 327C655 236.781 667.526 155.146 687.75 96.1001C697.864 66.5723 709.884 42.7485 723.182 26.3266C736.487 9.8963 750.962 1 766 1C781.038 1 795.513 9.8963 808.818 26.3266C822.116 42.7485 834.136 66.5723 844.25 96.1001C864.474 155.146 877 236.781 877 327Z" stroke="black" stroke-width="2"/>
<path d="M981 327C981 417.177 962.666 498.767 933.072 557.776C903.447 616.844 862.706 653 818 653C773.294 653 732.553 616.844 702.928 557.776C673.334 498.767 655 417.177 655 327C655 236.823 673.334 155.233 702.928 96.2244C732.553 37.1565 773.294 1 818 1C862.706 1 903.447 37.1565 933.072 96.2244C962.666 155.233 981 236.823 981 327Z" stroke="black" stroke-width="2"/>
<path d="M1073 327C1073 417.136 1049.54 498.692 1011.65 557.684C973.76 616.686 921.534 653 864 653C806.466 653 754.24 616.686 716.349 557.684C678.465 498.692 655 417.136 655 327C655 236.864 678.465 155.308 716.349 96.3165C754.24 37.3143 806.466 1 864 1C921.534 1 973.76 37.3143 1011.65 96.3165C1049.54 155.308 1073 236.864 1073 327Z" stroke="black" stroke-width="2"/>
<path d="M1158 327C1158 507.301 1045.17 653 906.5 653C767.825 653 655 507.301 655 327C655 146.699 767.825 1 906.5 1C1045.17 1 1158 146.699 1158 327Z" stroke="black" stroke-width="2"/>
<path d="M1219 327C1219 507.185 1092.61 653 937 653C781.386 653 655 507.185 655 327C655 146.815 781.386 1 937 1C1092.61 1 1219 146.815 1219 327Z" stroke="black" stroke-width="2"/>
<path d="M1268 327C1268 507.104 1130.72 653 961.5 653C792.282 653 655 507.104 655 327C655 146.896 792.282 1 961.5 1C1130.72 1 1268 146.896 1268 327Z" stroke="black" stroke-width="2"/>
<path d="M1294 327C1294 507.064 1150.94 653 974.5 653C798.064 653 655 507.064 655 327C655 146.936 798.064 1 974.5 1C1150.94 1 1294 146.936 1294 327Z" stroke="black" stroke-width="2"/>
<circle cx="981" cy="327" r="326" stroke="black" stroke-width="2"/>
<path d="M542 327C542 417.26 548.322 498.95 558.534 558.054C563.641 587.614 569.714 611.476 576.433 627.925C579.795 636.154 583.296 642.469 586.877 646.711C590.466 650.962 594.021 653 597.5 653C600.979 653 604.534 650.962 608.123 646.711C611.704 642.469 615.205 636.154 618.567 627.925C625.286 611.476 631.359 587.614 636.466 558.054C646.678 498.95 653 417.26 653 327C653 236.74 646.678 155.05 636.466 95.9463C631.359 66.3864 625.286 42.5243 618.567 26.0754C615.205 17.8465 611.704 11.5305 608.123 7.28863C604.534 3.03813 600.979 1 597.5 1C594.021 1 590.466 3.03813 586.877 7.28863C583.296 11.5305 579.795 17.8465 576.433 26.0754C569.714 42.5243 563.641 66.3864 558.534 95.9463C548.322 155.05 542 236.74 542 327Z" stroke="black" stroke-width="2"/>
<path d="M431 327C431 417.219 443.526 498.854 463.75 557.9C473.864 587.428 485.884 611.252 499.182 627.673C512.487 644.104 526.962 653 542 653C557.038 653 571.513 644.104 584.818 627.673C598.116 611.252 610.136 587.428 620.25 557.9C640.474 498.854 653 417.219 653 327C653 236.781 640.474 155.146 620.25 96.1001C610.136 66.5723 598.116 42.7485 584.818 26.3266C571.513 9.8963 557.038 1 542 1C526.962 1 512.487 9.8963 499.182 26.3266C485.884 42.7485 473.864 66.5723 463.75 96.1001C443.526 155.146 431 236.781 431 327Z" stroke="black" stroke-width="2"/>
<path d="M327 327C327 417.177 345.334 498.767 374.928 557.776C404.553 616.844 445.294 653 490 653C534.706 653 575.447 616.844 605.072 557.776C634.666 498.767 653 417.177 653 327C653 236.823 634.666 155.233 605.072 96.2244C575.447 37.1565 534.706 1 490 1C445.294 1 404.553 37.1565 374.928 96.2244C345.334 155.233 327 236.823 327 327Z" stroke="black" stroke-width="2"/>
<path d="M235 327C235 417.136 258.465 498.692 296.349 557.684C334.24 616.686 386.466 653 444 653C501.534 653 553.76 616.686 591.651 557.684C629.535 498.692 653 417.136 653 327C653 236.864 629.535 155.308 591.651 96.3165C553.76 37.3143 501.534 1 444 1C386.466 1 334.24 37.3143 296.349 96.3165C258.465 155.308 235 236.864 235 327Z" stroke="black" stroke-width="2"/>
<path d="M150 327C150 507.301 262.825 653 401.5 653C540.175 653 653 507.301 653 327C653 146.699 540.175 1 401.5 1C262.825 1 150 146.699 150 327Z" stroke="black" stroke-width="2"/>
<path d="M89 327C89 507.185 215.386 653 371 653C526.614 653 653 507.185 653 327C653 146.815 526.614 1 371 1C215.386 1 89 146.815 89 327Z" stroke="black" stroke-width="2"/>
<path d="M40 327C40 507.104 177.282 653 346.5 653C515.718 653 653 507.104 653 327C653 146.896 515.718 1 346.5 1C177.282 1 40 146.896 40 327Z" stroke="black" stroke-width="2"/>
<path d="M14 327C14 507.064 157.064 653 333.5 653C509.936 653 653 507.064 653 327C653 146.936 509.936 1 333.5 1C157.064 1 14 146.936 14 327Z" stroke="black" stroke-width="2"/>
<circle cx="327" cy="327" r="326" transform="matrix(-1 0 0 1 654 0)" stroke="black" stroke-width="2"/>
</svg>
